PathFileType	4	(X/Y/Z)	/home/abdul/Desktop/myosuite/custom_workspace/IK/output/S1_12_2.trc
DataRate	CameraRate	NumFrames	NumMarkers	Units	OrigDataRate	OrigDataStartFrame	OrigNumFrames
200.0	200.0	39	3	mm	200.0	1184	1578
Frame#	Time	V_Shoulder			V_Elbow			V_Wrist		
		X1	Y1	Z1	X2	Y2	Z2	X3	Y3	Z3

1184	5.915	-204.27383113596034	466.30862368428757	363.76334313761373	-335.45035654026185	320.03420085988785	45.439376797918925	-205.5525347429451	81.76594075857767	86.23674526966504
1185	5.92	-204.2722159902421	466.63802453981697	363.8390592992146	-336.5020120228566	320.6350648496817	45.780028609889534	-207.2079938078615	82.00697262211483	86.29730479379975
1186	5.925	-204.27060645141842	466.9776804825589	363.91472007567387	-337.56202887331096	321.25941001502156	46.122167871833646	-208.88198919959189	82.26698304684734	86.35572742810206
1187	5.93	-204.26904058628392	467.32756713988505	363.9902777706263	-338.6300789128852	321.90727371163905	46.465755970859504	-210.57408724503784	82.5461100174924	86.41210909453119
1188	5.935	-204.2675574992037	467.6876529278339	364.0656830597982	-339.7058242337233	322.57867237393896	46.810751861549875	-212.2838360182285	82.84447534713114	86.46654592697357
1189	5.94	-204.26619729954302	468.0578989500971	364.14088496802333	-340.78891748467413	323.2736013721193	47.157111693911304	-214.01076567085133	83.1621845909317	86.51913355134938
1190	5.945	-204.265001067482	468.438258909378	364.2158308504218	-341.87900215995114	323.99203490173403	47.504788432133466	-215.75438878883057	83.4993269854981	86.56996635491484
1191	5.95	-204.2640108182737	468.8286790316792	364.2904663778965	-342.9757128889079	324.73392590554386	47.853731465072094	-217.51420077373402	83.85597541306834	86.61913674768456
1192	5.955	-204.263269465004	469.22909800405006	364.3647355270862	-344.07867572526845	325.49920602745635	48.20388620944271	-219.2896802477245	84.23218638974723	86.66673441900667
1193	5.96	-204.2628207799079	469.63944692630275	364.4385805749044	-345.1875084342224	326.28778559832443	48.5551937067892	-221.0802894807187	84.62800007693058	86.71284559242082
1194	5.965	-204.2627093542964	470.0596492771734	364.5119420977735	-346.301820775891	327.09955365334076	48.90759021537098	-222.88547483836902	85.04344031505734	86.75755228201781
1195	5.97	-204.26298055714287	470.48962089538054	364.5847589756542	-347.4212147837744	327.93437798074376	49.2610067981944	-224.70466724944785	85.47851467881296	86.80093155359648
1196	5.975	-204.26368049237826	470.92926997599835	364.6569684009509	-348.54528503691256	328.79210520152907	49.61536890849691	-226.53728269118363	85.9332145529026	86.84305479397747
1197	5.98	-204.26485595493776	471.3784970825286	364.7285058923623	-349.67361892462566	329.6725608798471	49.970595974076005	-228.38272269108066	86.40751522751444	86.88398699188473
1198	5.985	-204.26655438560078	471.83719517502135	364.79930531373	-350.8057969028491	330.5755496637553	50.326600981937595	-230.2403748437432	86.90137601260206	86.92378603384267
1199	5.99	-204.26882382466013	472.3052496545553	364.86929889792356	-351.94139274123177	331.5008554559853	50.68329006481983	-232.10961334122368	87.41474037012868	86.96250201855824
1200	5.995	-204.2717128644541	472.782538424349	364.93841727578507	-353.0799737603324	332.44824161437424	51.040562091226526	-233.98979951542265	87.94753606343622	87.00017659326255
1201	6.0	-204.27527060078978	473.26893196773085	365.00658951014316	-354.22110105842387	333.4174511816069	51.398308260679045	-235.88028239108593	88.49967532292575	87.03684231547629
1202	6.005	-204.2795465832835	473.7642934431561	365.07374313488896	-355.3643297275876	334.4082071439055	51.75641170596519	-237.7803992479693	89.07105502726529	87.07252204363354
1203	6.01	-204.28459076463787	474.2684787964084	365.13980419909586	-356.5092090589648	335.42021271829503	52.11474710422735	-239.68947619077545	89.66155689937058	87.10722835995315
1204	6.015	-204.290453448873	474.7813368900809	365.20469731614793	-357.655282737212	336.45315166806404	52.47318029878936	-241.60682872550964	90.27104771644045	87.14096302888075
1205	6.02	-204.29718523852443	475.3027096503784	365.26834571782996	-358.80208902438966	337.5066886460247	52.83156793367045	-243.5317623409525	90.89937953336312	87.17371649434173
1206	6.025	-204.3048369808158	475.8324322312355	365.3306713133182	-359.94916093369363	338.5804695651634	53.18975710277557	-245.4635730940033	91.5463899188473	87.20546741894213
1207	6.03	-204.31345971281215	476.3703331956909	365.39159475299704	-361.09602639361265	339.6741219962499	53.54758501578287	-247.40154819771436	92.21190220366995	87.23618226813305
1208	6.035	-204.32310460555468	476.91623471440624	365.4510354970159	-362.242208403267	340.78725559195186	53.90487868277135	-249.3449666109068	92.89572574046956	87.26581494221342
1209	6.04	-204.33382290717543	477.46995278116214	365.50891188848715	-363.3872251798475	341.9194625369725	54.26145461964357	-251.2930996283343	93.59765617455128	87.29430645888687
1210	6.045	-204.34566588498657	478.0312974451101	365.56514123121724	-364.5305902992285	343.07031802369636	54.61711857640065	-253.24521147044564	94.3174757252062	87.32158468891026
1211	6.05	-204.35868476653718	478.6000730595003	365.6196398718473	-365.6718128309775	344.23938075279233	54.9716652903184	-255.20055987188138	95.05495347708046	87.34756414717631
1212	6.055	-204.37293067962753	479.17607854655165	365.672323286275	-366.8103974691194	345.4261934581842	55.32487826605615	-257.1583966679319	95.80984568116273	87.37214584135975
1213	6.06	-204.3884545912692	479.75910767807113	365.72310617021526	-367.9458446601411	346.6302834557538	55.67652958470167	-259.117968378277	96.5818960649878	87.39521718002726
1214	6.065	-204.40530724557763	480.34894937136977	365.77190253375244	-369.0776507298376	347.8511632150986	56.02637974371889	-261.0785167874241	97.37083615168054	87.41665194186686
1215	6.07	-204.4235391005831	480.94538799997105	365.81862579972517	-370.20530801070447	349.08833095361507	56.37417752971994	-263.0392795213594	98.17638558748902	87.43631030743288
1216	6.075	-204.44320026394567	481.548203718543	365.8631889057803	-371.328304971673	350.3412712521328	56.71965992592805	-264.99949062002435	98.9982524774755	87.45403895453117
1217	6.08	-204.46434042755837	482.1571728014342	365.90550440992456	-372.4461263520647	351.60945569127296	57.06255205613687	-266.95838110532986	99.83613372905143	87.46967121808397
1218	6.085	-204.48700880102592	482.7720679941338	365.94548459939824	-373.55825330170876	352.89234350765634	57.40256716690142	-268.9151795445167	100.68971540305657	87.48302731502
1219	6.09	-204.51125404400466	483.3926588769221	365.98304160268896	-374.6641635292173	354.1893822690379	57.73940664961979	-270.86911260876707	101.55867307209311	87.49391463443132
1220	6.095	-204.53712419739384	484.01871223992384	366.01808750450095	-375.7633314604557	355.50000856739723	58.072760104080686	-272.81940562706757	102.44267218583249	87.50212809292827
1221	6.1	-204.56466661336853	484.64999246872384	366.0505344634928	-376.8552284092674	356.8236487289712	58.4023054449618	-274.7652831354102	103.34136844301707	87.50745055480692
1222	6.105	-204.59392788424887	485.286261939653	366.0802948325933	-377.939322762527	358.1597195401707	58.727709052666185	-276.7059694215093	104.2544081698801	87.50965331632457
